<?xml version="1.0" encoding="UTF-8"?>
<svg version="1.1" xmlns="http://www.w3.org/2000/svg" width="225" height="225">
<path d="M0 0 C74.25 0 148.5 0 225 0 C225 74.25 225 148.5 225 225 C150.75 225 76.5 225 0 225 C0 150.75 0 76.5 0 0 Z " fill="#FBFBFB" transform="translate(0,0)"/>
<path d="M0 0 C3.61540987 2.76299616 6.83561806 5.73480589 10 9 C10.71800781 9.72058594 11.43601562 10.44117187 12.17578125 11.18359375 C17.28452478 16.58096686 20.68582359 22.38206911 24 29 C24.556875 29.94875 25.11375 30.8975 25.6875 31.875 C32.56945415 48.26060512 32.13569928 67.64240515 25.78271484 84.09814453 C21.75846152 93.87635209 16.49684606 101.57991346 9 109 C8.34773438 109.68578125 7.69546875 110.3715625 7.0234375 111.078125 C-6.85736965 124.6909629 -24.93649055 129.53870946 -43.93725586 129.42260742 C-60.32789776 128.91294196 -74.55874601 122.45924999 -87 112 C-87.81855469 111.38125 -88.63710937 110.7625 -89.48046875 110.125 C-99.72854565 101.48166072 -108.31368168 86.2797568 -110 73 C-109.625 69.9375 -109.625 69.9375 -109 68 C-107.02 67.505 -107.02 67.505 -105 67 C-104.4121875 68.85625 -104.4121875 68.85625 -103.8125 70.75 C-96.73780815 91.74373675 -86.39725836 106.11564499 -67 117 C-66.88191287 113.81164749 -66.90354051 111.95461872 -68 109 C-69.61014473 107.45949821 -71.28570558 105.98619465 -73 104.5625 C-77.31576774 100.63907478 -78.59793549 98.02207243 -78.9609375 92.38061523 C-78.99873484 90.13757928 -78.97842296 87.90299006 -78.9375 85.66015625 C-78.67182887 81.90680872 -78.67182887 81.90680872 -81 79 C-81.5103118 75.68297328 -81.28699603 74.41945574 -79.375 71.625 C-77 70 -77 70 -73.9375 70.0625 C-69.41298701 71.50649351 -69.41298701 71.50649351 -68 74 C-68.44444444 80.44444444 -68.44444444 80.44444444 -70 82 C-71.18619244 91.22561915 -71.18619244 91.22561915 -68.25 99.703125 C-66.25362589 101.62820003 -64.19734474 103.31366566 -62 105 C-60.55792059 107.88415883 -60.90605113 110.41721528 -60.9375 113.625 C-60.94652344 114.81351562 -60.95554688 116.00203125 -60.96484375 117.2265625 C-60.97644531 118.14179688 -60.98804688 119.05703125 -61 120 C-58.03 120.33 -55.06 120.66 -52 121 C-52.10944715 116.54114074 -52.24017666 112.08315844 -52.375 107.625 C-52.4059375 106.35398437 -52.436875 105.08296875 -52.46875 103.7734375 C-52.52675781 101.95585937 -52.52675781 101.95585937 -52.5859375 100.1015625 C-52.6173584 98.98088379 -52.6487793 97.86020508 -52.68115234 96.70556641 C-52.73411203 93.85289588 -52.73411203 93.85289588 -55 92 C-55.33015665 88.89652746 -55.50531294 86.84218824 -53.875 84.125 C-51.07553259 82.44531955 -49.20195936 82.54257723 -46 83 C-43.5625 84.625 -43.5625 84.625 -42 87 C-42.3125 92.3125 -42.3125 92.3125 -44 94 C-44.15858842 96.14386657 -44.25129298 98.29266838 -44.31640625 100.44140625 C-44.35830078 101.74658203 -44.40019531 103.05175781 -44.44335938 104.39648438 C-44.48317608 105.7851533 -44.52288825 107.17382522 -44.5625 108.5625 C-44.60567989 109.95509183 -44.649294 111.34767028 -44.69335938 112.74023438 C-44.79985876 116.16004801 -44.90186923 119.57993763 -45 123 C-41.7 123 -38.4 123 -35 123 C-35.07069702 121.61663452 -35.07069702 121.61663452 -35.14282227 120.20532227 C-35.29732658 116.74386066 -35.40952019 113.28611603 -35.49438477 109.82250977 C-35.53932712 108.33135782 -35.60051176 106.84059536 -35.67895508 105.35083008 C-36.32217912 92.81006337 -36.32217912 92.81006337 -32.98071289 88.2355957 C-31.3701103 86.75410846 -29.72129084 85.31280766 -28.0324707 83.92114258 C-25.80458921 81.81529279 -25.31081817 80.9122699 -25.05078125 77.91015625 C-25.13714844 76.64042969 -25.22351563 75.37070313 -25.3125 74.0625 C-25.37050781 72.77472656 -25.42851563 71.48695312 -25.48828125 70.16015625 C-25.69807316 66.9119359 -25.69807316 66.9119359 -28 65 C-28.375 61.5625 -28.375 61.5625 -28 58 C-26.375 56 -26.375 56 -24 55 C-20.32706204 55.22037628 -18.63033454 55.36966546 -16 58 C-15.75 61.5 -15.75 61.5 -16 65 C-16.66 65.66 -17.32 66.32 -18 67 C-18.09332642 70.64719664 -18.1241306 74.26393235 -17.95117188 77.90820312 C-17.98766838 81.89295748 -18.17222384 84.14911106 -21.02856445 87.08520508 C-21.84156006 87.77638428 -22.65455566 88.46756348 -23.4921875 89.1796875 C-27.66282754 92.95725267 -28.69279977 95.39002075 -29.09765625 101.00390625 C-29.13054586 103.52325008 -29.117904 106.04355073 -29.0625 108.5625 C-29.06958984 109.85736328 -29.07667969 111.15222656 -29.08398438 112.48632812 C-29.09569466 115.65981581 -29.06668842 118.82735408 -29 122 C-25.7 121.01 -22.4 120.02 -19 119 C-19.11402064 116.72858891 -19.24158505 114.45785448 -19.375 112.1875 C-19.47941406 110.29064453 -19.47941406 110.29064453 -19.5859375 108.35546875 C-19.76102939 104.87244766 -19.76102939 104.87244766 -22 102 C-22.4375 99.5625 -22.4375 99.5625 -22 97 C-19.8125 94.625 -19.8125 94.625 -17 93 C-14.12243866 93.06851337 -12.572723 93.6563662 -10.125 95.125 C-8.30798592 98.1533568 -9.26255814 100.68151162 -10 104 C-10.33 104.33 -10.66 104.66 -11 105 C-11.07205511 106.68608966 -11.08386068 108.37500659 -11.0625 110.0625 C-11.05347656 110.98160156 -11.04445313 111.90070313 -11.03515625 112.84765625 C-11.02355469 113.55792969 -11.01195312 114.26820313 -11 115 C-7.72796535 113.86925731 -5.3496754 112.57093965 -3 110 C-1.90645978 105.27880592 -2.15663779 100.69352619 -2.375 95.875 C-2.39433594 94.58722656 -2.41367188 93.29945313 -2.43359375 91.97265625 C-2.36035324 85.09939467 -2.36035324 85.09939467 -5 79 C-4.79511638 76.26821837 -4.28363 74.47271667 -2.875 72.125 C-1 71 -1 71 2.5625 71.125 C6 72 6 72 8 75 C7.43396226 81.56603774 7.43396226 81.56603774 6 83 C5.91348389 84.41570123 5.89295096 85.835595 5.90234375 87.25390625 C5.90556641 88.10791016 5.90878906 88.96191406 5.91210938 89.84179688 C5.92048828 90.73962891 5.92886719 91.63746094 5.9375 92.5625 C5.94201172 93.46419922 5.94652344 94.36589844 5.95117188 95.29492188 C5.96299775 97.53001314 5.9794778 99.76497437 6 102 C18.68511404 88.17073842 23.7424352 71.4631911 23 53 C21.57208639 36.49739841 13.7917325 21.7408949 1.86328125 10.35546875 C-12.77068014 -1.68311068 -30.26946777 -6.42449839 -49.01953125 -4.7265625 C-65.49867862 -2.43719209 -80.45386836 6.16275187 -91 19 C-98.90370525 30.30832647 -103.19227417 42.37069871 -105 56 C-106.65614657 56.38218767 -108.32457024 56.71395102 -110 57 C-111 56 -111 56 -111.3125 52.875 C-111.00299904 33.68594043 -99.89126297 17.27404909 -86.67578125 4.359375 C-62.36438333 -17.07724448 -26.49320369 -17.57945757 0 0 Z " fill="#080808" transform="translate(153,54)"/>
<path d="M0 0 C1.32 1.65 2.64 3.3 4 5 C7.13117567 7.08745045 8.06946224 7.27653996 11.66796875 7.4140625 C13.00698242 7.47207031 13.00698242 7.47207031 14.37304688 7.53125 C15.76620117 7.57765625 15.76620117 7.57765625 17.1875 7.625 C18.12787109 7.66367188 19.06824219 7.70234375 20.03710938 7.7421875 C22.3578771 7.83643187 24.67863748 7.92204025 27 8 C27.98188561 10.58232914 28.96059589 13.16578683 29.9375 15.75 C30.35418945 16.84441406 30.35418945 16.84441406 30.77929688 17.9609375 C31.04677734 18.66992188 31.31425781 19.37890625 31.58984375 20.109375 C31.95903931 21.08342285 31.95903931 21.08342285 32.33569336 22.07714844 C32.66452515 23.02895996 32.66452515 23.02895996 33 24 C33.36037354 25.02710083 33.36037354 25.02710083 33.72802734 26.07495117 C33.86265381 27.02785034 33.86265381 27.02785034 34 28 C32.28285529 30.06476912 30.65496458 31.76927583 28.6875 33.5625 C23.02792076 38.50699276 23.02792076 38.50699276 20.625 45.375 C21.05800958 49.56075932 22.21685909 50.95593963 25 54 C25 54.66 25 55.32 25 56 C26.32 56.66 27.64 57.32 29 58 C29 58.66 29 59.32 29 60 C30.485 60.495 30.485 60.495 32 61 C33.54296875 62.63671875 33.54296875 62.63671875 35.1875 64.6875 C39.35465566 69.56676453 43.6418454 74.32836908 50.125 75.625 C57.80184073 73.95612158 62.7623545 67.44715132 68 62 C72.31788058 63.40871673 76.57095688 64.93859492 80.8125 66.5625 C81.95332031 66.99691406 83.09414062 67.43132812 84.26953125 67.87890625 C87 69 87 69 88 70 C88.20428601 73.73767741 88.34652944 77.46882491 88.4296875 81.2109375 C88.69138599 87.90605722 90.1790705 91.1790705 95 96 C63.65 96 32.3 96 0 96 C0 64.32 0 32.64 0 0 Z " fill="#FDFDFD" transform="translate(0,129)"/>
<path d="M0 0 C31.35 0 62.7 0 95 0 C93.02 2.31 91.04 4.62 89 7 C88.12144363 9.46346073 88.12144363 9.46346073 88.1953125 11.83984375 C88.16953125 12.67451172 88.14375 13.50917969 88.1171875 14.36914062 C88.12105469 15.64047852 88.12105469 15.64047852 88.125 16.9375 C88.104375 17.81212891 88.08375 18.68675781 88.0625 19.58789062 C88.01579047 21.72485152 88.00427066 23.86253294 88 26 C87.20335938 26.32613281 86.40671875 26.65226562 85.5859375 26.98828125 C84.52632813 27.42527344 83.46671875 27.86226562 82.375 28.3125 C81.27929688 28.76367188 80.18359375 29.21484375 79.0546875 29.6796875 C76.76278729 30.67030421 74.65565859 31.69771708 72.5 32.9375 C70 34 70 34 68.12890625 33.34765625 C65.51110769 31.69051772 63.58144762 29.73463915 61.4375 27.5 C56.94200649 22.71375218 56.94200649 22.71375218 50.9375 20.375 C42.07337637 21.78200375 35.67869071 30.1593158 29.5 36.25 C28.88825928 36.85215332 28.27651855 37.45430664 27.64624023 38.07470703 C26.78494507 38.94264893 26.78494507 38.94264893 25.90625 39.828125 C25.39384766 40.3427832 24.88144531 40.85744141 24.35351562 41.38769531 C22.08146035 44.09416231 21.08176259 46.37315346 20.625 49.875 C21.56340137 57.69501144 28.6154419 62.82254029 34 68 C32.59128327 72.31788058 31.06140508 76.57095688 29.4375 80.8125 C28.78587891 82.52373047 28.78587891 82.52373047 28.12109375 84.26953125 C27 87 27 87 26 88 C24.64367062 88.10818608 23.28236411 88.15570609 21.921875 88.17578125 C20.67470703 88.21155273 20.67470703 88.21155273 19.40234375 88.24804688 C17.64997832 88.29063013 15.89730319 88.32208805 14.14453125 88.34179688 C8.82247074 88.51810551 5.87215615 89.00027281 2 93 C1.01 93.99 1.01 93.99 0 95 C0 63.65 0 32.3 0 0 Z " fill="#FEFEFE" transform="translate(0,0)"/>
<path d="M0 0 C0.73997726 -0.00570007 1.47995453 -0.01140015 2.24235535 -0.01727295 C3.81007456 -0.02672518 5.37781366 -0.03325782 6.94555664 -0.03710938 C9.33580582 -0.04679532 11.7251878 -0.07780695 14.11523438 -0.109375 C15.63931782 -0.11590723 17.1634074 -0.12115684 18.6875 -0.125 C19.39912796 -0.1373468 20.11075592 -0.1496936 20.84394836 -0.16241455 C25.27587324 -0.14267693 28.04566229 0.44943833 31.54296875 3.203125 C34.30145727 6.10837757 34.91232196 7.99675796 34.8359375 11.96875 C34.82626953 12.85820312 34.81660156 13.74765625 34.80664062 14.6640625 C34.78150391 15.58445312 34.75636719 16.50484375 34.73046875 17.453125 C34.71693359 18.38898437 34.70339844 19.32484375 34.68945312 20.2890625 C34.65416829 22.59433827 34.60487156 24.8984356 34.54296875 27.203125 C35.13682373 27.32139648 35.73067871 27.43966797 36.3425293 27.56152344 C41.52793314 28.64408002 45.81722367 30.10309301 50.5 32.59375 C52.53376557 33.40634301 52.53376557 33.40634301 54.51953125 32.59375 C57.02616066 30.87104716 59.00011907 28.89753347 61.10546875 26.703125 C67.2735233 20.29583731 67.2735233 20.29583731 70.62890625 20.05078125 C74.91499543 20.45305924 77.11883184 20.88926369 80.66796875 23.515625 C82.54296875 26.203125 82.54296875 26.203125 82.35546875 28.515625 C82.08734375 29.0725 81.81921875 29.629375 81.54296875 30.203125 C79.16796875 30.328125 79.16796875 30.328125 76.54296875 30.203125 C75.55296875 29.213125 75.55296875 29.213125 74.54296875 28.203125 C72.23342502 27.48564202 72.23342502 27.48564202 69.54296875 28.203125 C66.53212524 30.67972381 64.06636987 33.71784858 61.53515625 36.66992188 C59.94275373 38.4045032 58.49517565 39.88412708 56.54296875 41.203125 C51.89656186 41.26392858 48.36078421 39.91504366 44.23046875 37.890625 C39.70375102 35.72431195 35.14597838 33.84146453 30.44140625 32.09765625 C28.54296875 31.203125 28.54296875 31.203125 27.54296875 29.203125 C27.40291358 27.62190932 27.31740891 26.03564778 27.26171875 24.44921875 C27.20564453 23.04446289 27.20564453 23.04446289 27.1484375 21.61132812 C27.07798649 19.62695804 27.00767453 17.64258301 26.9375 15.65820312 C26.88142578 14.25538086 26.88142578 14.25538086 26.82421875 12.82421875 C26.79392578 11.9623999 26.76363281 11.10058105 26.73242188 10.21264648 C26.75871991 8.20633783 26.75871991 8.20633783 25.54296875 7.203125 C23.26349083 7.1029157 20.9808974 7.07231197 18.69921875 7.0703125 C18.01492798 7.06935577 17.33063721 7.06839905 16.62561035 7.06741333 C15.17634998 7.0667317 13.72708657 7.06858477 12.27783203 7.07275391 C10.05233947 7.07810248 7.82704874 7.0728084 5.6015625 7.06640625 C4.19661414 7.06706703 2.7916659 7.0683482 1.38671875 7.0703125 C0.09958984 7.07144043 -1.18753906 7.07256836 -2.51367188 7.07373047 C-5.34529282 6.86626357 -5.34529282 6.86626357 -6.45703125 8.203125 C-6.57771096 9.7286211 -6.63655729 11.25912288 -6.66796875 12.7890625 C-6.69632812 13.71976563 -6.7246875 14.65046875 -6.75390625 15.609375 C-6.80577911 17.58054378 -6.85011244 19.55192612 -6.88671875 21.5234375 C-6.91765625 22.45671875 -6.94859375 23.39 -6.98046875 24.3515625 C-7.00028809 25.20927246 -7.02010742 26.06698242 -7.04052734 26.95068359 C-7.54773188 29.69363145 -8.25769783 30.52988429 -10.45703125 32.203125 C-13.07724253 33.2896921 -15.6568291 34.27764966 -18.33203125 35.203125 C-23.93045003 37.13758807 -23.93045003 37.13758807 -29.15234375 39.890625 C-32.02521767 41.52670235 -33.20991639 41.94644045 -36.45703125 41.203125 C-39.51795547 38.74345375 -42.02727334 35.74074345 -44.640625 32.82421875 C-45.18847656 32.23769531 -45.73632812 31.65117187 -46.30078125 31.046875 C-46.78740234 30.50224609 -47.27402344 29.95761719 -47.77539062 29.39648438 C-50.19610608 27.67864797 -51.54697293 27.71171026 -54.45703125 28.203125 C-56.97498525 29.95099512 -56.97498525 29.95099512 -59.3203125 32.40234375 C-60.20654297 33.28212891 -61.09277344 34.16191406 -62.00585938 35.06835938 C-62.91787109 35.99970703 -63.82988281 36.93105469 -64.76953125 37.890625 C-65.70087891 38.80263672 -66.63222656 39.71464844 -67.59179688 40.65429688 C-68.91147461 41.98364258 -68.91147461 41.98364258 -70.2578125 43.33984375 C-71.06387939 44.15155029 -71.86994629 44.96325684 -72.70043945 45.79956055 C-74.63458493 48.07028231 -74.63458493 48.07028231 -74.89941406 50.81420898 C-74.37708247 53.63485722 -73.72803039 54.43999926 -71.578125 56.2890625 C-70.98708984 56.82789063 -70.39605469 57.36671875 -69.78710938 57.921875 C-68.52703422 59.02460331 -67.26139121 60.121002 -65.99023438 61.2109375 C-64.2551 62.80384775 -62.77529756 64.24947175 -61.45703125 66.203125 C-61.39815325 70.74654388 -62.58307653 74.0269834 -64.76953125 77.953125 C-67.19949217 82.5251035 -68.94338486 87.13831701 -70.5625 92.05078125 C-71.45703125 94.203125 -71.45703125 94.203125 -73.45703125 95.203125 C-75.03824693 95.34318017 -76.62450847 95.42868484 -78.2109375 95.484375 C-79.14744141 95.52175781 -80.08394531 95.55914062 -81.04882812 95.59765625 C-83.03319821 95.66810726 -85.01757324 95.73841922 -87.00195312 95.80859375 C-88.40477539 95.86466797 -88.40477539 95.86466797 -89.8359375 95.921875 C-90.69775635 95.95216797 -91.5595752 95.98246094 -92.44750977 96.01367188 C-94.45381842 95.98737384 -94.45381842 95.98737384 -95.45703125 97.203125 C-95.55724055 99.48260292 -95.58784428 101.76519635 -95.58984375 104.046875 C-95.59127884 105.07331116 -95.59127884 105.07331116 -95.59274292 106.1204834 C-95.59342455 107.56974377 -95.59157148 109.01900718 -95.58740234 110.46826172 C-95.58205377 112.69375428 -95.58734785 114.91904501 -95.59375 117.14453125 C-95.59308922 118.54947961 -95.59180805 119.95442785 -95.58984375 121.359375 C-95.58871582 122.64650391 -95.58758789 123.93363281 -95.58642578 125.25976562 C-95.79389268 128.09138657 -95.79389268 128.09138657 -94.45703125 129.203125 C-92.93195579 129.33591078 -91.4013405 129.40641565 -89.87109375 129.44921875 C-88.94039062 129.48208984 -88.0096875 129.51496094 -87.05078125 129.54882812 C-85.07953689 129.60978108 -83.10817673 129.66710248 -81.13671875 129.72070312 C-80.2034375 129.75486328 -79.27015625 129.78902344 -78.30859375 129.82421875 C-77.02202881 129.86180298 -77.02202881 129.86180298 -75.70947266 129.90014648 C-73.45703125 130.203125 -73.45703125 130.203125 -70.45703125 132.203125 C-69.34557455 134.78494628 -68.36898835 137.30274968 -67.45703125 139.953125 C-66.96028982 141.36573343 -66.46033012 142.77721461 -65.95703125 144.1875 C-65.59158203 145.21327148 -65.59158203 145.21327148 -65.21875 146.25976562 C-64.39898019 148.45713523 -64.39898019 148.45713523 -62.76953125 151.40625 C-60.67506163 155.86946503 -60.67506163 155.86946503 -61.45703125 159.203125 C-63.92098427 162.26155557 -66.9187978 164.77281602 -69.8359375 167.38671875 C-70.42246094 167.93457031 -71.00898437 168.48242188 -71.61328125 169.046875 C-72.15791016 169.53349609 -72.70253906 170.02011719 -73.26367188 170.52148438 C-74.98150828 172.94219983 -74.94844599 174.29306668 -74.45703125 177.203125 C-72.70916113 179.721079 -72.70916113 179.721079 -70.2578125 182.06640625 C-69.37802734 182.95263672 -68.49824219 183.83886719 -67.59179688 184.75195312 C-66.19477539 186.1199707 -66.19477539 186.1199707 -64.76953125 187.515625 C-63.85751953 188.44697266 -62.94550781 189.37832031 -62.00585938 190.33789062 C-61.11962891 191.21767578 -60.23339844 192.09746094 -59.3203125 193.00390625 C-58.10275269 194.21300659 -58.10275269 194.21300659 -56.8605957 195.4465332 C-54.58987394 197.38067868 -54.58987394 197.38067868 -51.84594727 197.64550781 C-49.02529903 197.12317622 -48.22015699 196.47412414 -46.37109375 194.32421875 C-45.83226562 193.73318359 -45.2934375 193.14214844 -44.73828125 192.53320312 C-43.63555294 191.27312797 -42.53915425 190.00748496 -41.44921875 188.73632812 C-39.85640249 187.00129613 -38.41034061 185.52162989 -36.45703125 184.203125 C-31.87162397 184.13868144 -28.59598743 185.35669307 -24.64453125 187.578125 C-20.349193 189.86721797 -16.20898272 191.27938999 -11.48828125 192.4296875 C-9.45703125 193.203125 -9.45703125 193.203125 -7.45703125 196.203125 C-7.15405273 198.45556641 -7.15405273 198.45556641 -7.078125 201.0546875 C-7.04396484 201.98796875 -7.00980469 202.92125 -6.97460938 203.8828125 C-6.9349707 205.34074219 -6.9349707 205.34074219 -6.89453125 206.828125 C-6.8348592 208.75794463 -6.77127353 210.68764861 -6.703125 212.6171875 C-6.67919678 213.4726416 -6.65526855 214.3280957 -6.63061523 215.20947266 C-6.67242948 217.20209581 -6.67242948 217.20209581 -5.45703125 218.203125 C-3.17755333 218.3033343 -0.8949599 218.33393803 1.38671875 218.3359375 C2.07100952 218.33689423 2.75530029 218.33785095 3.46032715 218.33883667 C4.90958752 218.3395183 6.35885093 218.33766523 7.80810547 218.33349609 C10.03359803 218.32814752 12.25888876 218.3334416 14.484375 218.33984375 C15.88932336 218.33918297 17.2942716 218.3379018 18.69921875 218.3359375 C19.98634766 218.33480957 21.27347656 218.33368164 22.59960938 218.33251953 C25.43123032 218.53998643 25.43123032 218.53998643 26.54296875 217.203125 C26.67546139 215.73937017 26.7461887 214.26989471 26.7890625 212.80078125 C26.82193359 211.91068359 26.85480469 211.02058594 26.88867188 210.10351562 C26.94973961 208.21561316 27.00704762 206.32758523 27.06054688 204.43945312 C27.09470703 203.54806641 27.12886719 202.65667969 27.1640625 201.73828125 C27.20164673 200.50670288 27.20164673 200.50670288 27.23999023 199.25024414 C27.54296875 197.203125 27.54296875 197.203125 29.54296875 195.203125 C32.16796875 195.578125 32.16796875 195.578125 34.54296875 196.203125 C34.63042821 199.5987947 34.68351319 202.99417273 34.73046875 206.390625 C34.75560547 207.35033203 34.78074219 208.31003906 34.80664062 209.29882812 C34.90164611 218.45102339 34.90164611 218.45102339 31.54296875 222.203125 C27.42422179 225.28958917 23.82591705 225.67043506 18.828125 225.671875 C18.09476425 225.67948853 17.3614035 225.68710205 16.6058197 225.69494629 C15.06024568 225.70571433 13.51459909 225.70861381 11.96899414 225.70410156 C9.61545481 225.70312913 7.26517857 225.74478101 4.91210938 225.7890625 C3.40495466 225.79427033 1.89778871 225.79695768 0.390625 225.796875 C-0.30643051 225.81327026 -1.00348602 225.82966553 -1.72166443 225.84655762 C-5.52383072 225.79328249 -7.95142493 225.17957847 -10.88500977 222.85351562 C-14.04866119 219.59346818 -14.5568071 217.33621139 -14.7734375 212.97265625 C-14.81533203 212.17021484 -14.85722656 211.36777344 -14.90039062 210.54101562 C-14.93970703 209.70763672 -14.97902344 208.87425781 -15.01953125 208.015625 C-15.08430664 206.7481543 -15.08430664 206.7481543 -15.15039062 205.45507812 C-15.25634643 203.37128067 -15.35718145 201.28722397 -15.45703125 199.203125 C-17.87243431 198.22074092 -20.28924947 197.24212282 -22.70703125 196.265625 C-23.38894531 195.98783203 -24.07085937 195.71003906 -24.7734375 195.42382812 C-29.50233115 193.41261368 -29.50233115 193.41261368 -34.45703125 192.203125 C-36.49588836 193.92116195 -38.18537683 195.55328843 -39.95703125 197.515625 C-43.73681505 201.60953252 -46.58194709 204.68038243 -52.20703125 205.703125 C-60.74078963 204.3902391 -67.81314742 195.47957265 -73.08203125 189.078125 C-75.42098404 186.15423906 -75.42098404 186.15423906 -78.14453125 183.515625 C-80.86839898 180.79175727 -82.29542801 178.92299396 -83.14453125 175.140625 C-82.06284766 168.94552808 -77.81917651 165.5147156 -73.45703125 161.203125 C-72.6990625 160.44386719 -71.94109375 159.68460938 -71.16015625 158.90234375 C-70.598125 158.34160156 -70.03609375 157.78085938 -69.45703125 157.203125 C-70.92532115 152.70453468 -72.42352513 148.23717878 -74.14453125 143.828125 C-75.45703125 140.203125 -75.45703125 140.203125 -75.45703125 137.203125 C-76.31868896 137.24240112 -76.31868896 137.24240112 -77.19775391 137.2824707 C-79.82556296 137.387043 -82.45293356 137.45163444 -85.08203125 137.515625 C-86.43748047 137.5784668 -86.43748047 137.5784668 -87.8203125 137.64257812 C-92.2761215 137.72388851 -95.46517106 137.722853 -99.04296875 134.87109375 C-103.9994164 129.39333688 -102.75363881 121.78650917 -102.80712891 114.7800293 C-102.82367605 113.19231495 -102.85095033 111.60467473 -102.88916016 110.01733398 C-102.9441577 107.71819769 -102.96583441 105.42080074 -102.98046875 103.12109375 C-103.00313812 102.41776413 -103.0258075 101.71443451 -103.04916382 100.98979187 C-103.03272648 97.12234207 -102.44366251 94.72809533 -100.04931641 91.77075195 C-96.84643454 88.59833637 -95.44793321 88.08936709 -91.10546875 87.88671875 C-90.2546875 87.84482422 -89.40390625 87.80292969 -88.52734375 87.75976562 C-87.63789062 87.72044922 -86.7484375 87.68113281 -85.83203125 87.640625 C-84.93484375 87.59744141 -84.03765625 87.55425781 -83.11328125 87.50976562 C-80.89468842 87.40355639 -78.67598245 87.30151306 -76.45703125 87.203125 C-75.47464717 84.78772194 -74.49602907 82.37090678 -73.51953125 79.953125 C-73.24173828 79.27121094 -72.96394531 78.58929688 -72.67773438 77.88671875 C-70.66651993 73.1578251 -70.66651993 73.1578251 -69.45703125 68.203125 C-71.1750682 66.16426789 -72.80719468 64.47477942 -74.76953125 62.703125 C-82.10077775 55.93440181 -82.10077775 55.93440181 -82.83203125 50.328125 C-81.96285919 43.08502454 -75.58965375 38.0309539 -70.64453125 33.140625 C-69.61489258 32.09938477 -69.61489258 32.09938477 -68.56445312 31.03710938 C-58.49478865 21.00555148 -58.49478865 21.00555148 -52.14453125 19.328125 C-46.20930297 20.73648425 -42.65735287 24.95355338 -38.45703125 29.203125 C-37.69777344 29.96109375 -36.93851562 30.7190625 -36.15625 31.5 C-35.31513672 32.34304687 -35.31513672 32.34304687 -34.45703125 33.203125 C-30.11031832 31.78945241 -25.84346735 30.23051859 -21.58203125 28.578125 C-20.42960937 28.13210937 -19.2771875 27.68609375 -18.08984375 27.2265625 C-17.22101563 26.88882812 -16.3521875 26.55109375 -15.45703125 26.203125 C-15.44285156 24.90117187 -15.42867188 23.59921875 -15.4140625 22.2578125 C-15.3671441 20.53121534 -15.31889681 18.80465393 -15.26953125 17.078125 C-15.26083008 15.79421875 -15.26083008 15.79421875 -15.25195312 14.484375 C-15.0391754 8.33746283 -13.94318933 5.4646348 -9.45703125 1.203125 C-6.43965011 -0.30556557 -3.31098952 0.01960609 0 0 Z " fill="#0A0A0A" transform="translate(102.45703125,-0.203125)"/>
<path d="M0 0 C2.625 0.9375 2.625 0.9375 5 2 C5 2.66 5 3.32 5 4 C5.5775 4.20625 6.155 4.4125 6.75 4.625 C9.9301561 6.56842873 11.24341266 8.73776636 13 12 C13.61875967 15.71255801 13.27504881 17.46186103 11.5625 20.8125 C8.25207447 25.32671663 4.0223385 29.13236682 0 33 C1.41367259 37.34671293 2.97260641 41.6135639 4.625 45.875 C5.07101563 47.02742188 5.51703125 48.17984375 5.9765625 49.3671875 C6.31429687 50.23601562 6.65203125 51.10484375 7 52 C8.30195313 52.01417969 9.60390625 52.02835938 10.9453125 52.04296875 C12.67190966 52.08988715 14.39847107 52.13813444 16.125 52.1875 C17.40890625 52.19620117 17.40890625 52.19620117 18.71875 52.20507812 C24.86566217 52.41785585 27.7384902 53.51384192 32 58 C33.50869057 61.01738114 33.18351891 64.14604173 33.203125 67.45703125 C33.20882507 68.19700851 33.21452515 68.93698578 33.22039795 69.6993866 C33.22985018 71.26710581 33.23638282 72.83484491 33.24023438 74.40258789 C33.24992032 76.79283707 33.28093195 79.18221905 33.3125 81.57226562 C33.31903223 83.09634907 33.32428184 84.62043865 33.328125 86.14453125 C33.3404718 86.85615921 33.3528186 87.56778717 33.36553955 88.30097961 C33.34582815 92.72701661 32.68172376 95.46424223 30 99 C25.52939347 102.88126104 20.78988784 102.35043298 15.1875 102.1875 C13.86202148 102.16719727 13.86202148 102.16719727 12.50976562 102.14648438 C10.33957977 102.11129217 8.16970967 102.05748985 6 102 C5.82259277 102.89078247 5.82259277 102.89078247 5.64160156 103.79956055 C4.55904498 108.98496439 3.10003199 113.27425492 0.609375 117.95703125 C-0.20321801 119.99079682 -0.20321801 119.99079682 0.609375 121.9765625 C2.33207784 124.48319191 4.30559153 126.45715032 6.5 128.5625 C12.78194361 134.60989052 12.78194361 134.60989052 13.5 139.1875 C12.83896366 144.22790211 10.5762911 147.4329739 7 151 C6.34 151 5.68 151 5 151 C4.67 151.99 4.34 152.98 4 154 C2.59380621 155.17182816 1.1831384 156.33887282 -0.25390625 157.47265625 C-2.24086087 159.2106859 -3.86697768 161.10298761 -5.5625 163.125 C-9.12728337 167.25921266 -11.7842556 169.47864838 -17.1875 170.75 C-23.96746978 169.41623545 -28.6241797 163.77717247 -33.01171875 158.6484375 C-34.86418726 156.73417438 -34.86418726 156.73417438 -37.2890625 157.1171875 C-38.05992187 157.36726562 -38.83078125 157.61734375 -39.625 157.875 C-41.9765625 158.6171875 -41.9765625 158.6171875 -44 159 C-46 157 -46 157 -46.0625 155.125 C-44.40103603 151.80207207 -41.3827421 150.25188093 -38 149 C-35.67578125 148.48828125 -35.67578125 148.48828125 -33 149 C-30.55487197 150.90518469 -28.51987418 153.14904506 -26.4375 155.4375 C-25.31841606 156.65122647 -24.19233729 157.85854942 -23.05859375 159.05859375 C-22.32080688 159.86768188 -22.32080688 159.86768188 -21.56811523 160.69311523 C-19.59951472 162.33376891 -18.58569449 162.943731 -16 163 C-13.47236146 161.25128836 -13.47236146 161.25128836 -11.015625 158.6796875 C-9.61376953 157.2875 -9.61376953 157.2875 -8.18359375 155.8671875 C-7.46212158 155.13000488 -7.46212158 155.13000488 -6.72607422 154.37792969 C-5.25854446 152.88369992 -3.76636916 151.41792654 -2.26953125 149.953125 C-1.34011719 149.01726562 -0.41070312 148.08140625 0.546875 147.1171875 C1.40120117 146.25722168 2.25552734 145.39725586 3.13574219 144.51123047 C5.1753385 142.15665558 5.1753385 142.15665558 5.45825195 139.37304688 C4.91749413 136.5727453 4.25987076 135.75355459 2.12109375 133.9140625 C1.53005859 133.37523437 0.93902344 132.83640625 0.33007812 132.28125 C-0.92999703 131.17852169 -2.19564004 130.082123 -3.46679688 128.9921875 C-5.2013782 127.39978498 -6.68100208 125.9522069 -8 124 C-8.06080358 119.35359311 -6.71191866 115.81781546 -4.6875 111.6875 C-2.52118695 107.16078227 -0.63833953 102.60300963 1.10546875 97.8984375 C2 96 2 96 4 95 C5.58121568 94.85994483 7.16747722 94.77444016 8.75390625 94.71875 C9.69041016 94.68136719 10.62691406 94.64398438 11.59179688 94.60546875 C13.57616696 94.53501774 15.56054199 94.46470578 17.54492188 94.39453125 C18.94774414 94.33845703 18.94774414 94.33845703 20.37890625 94.28125 C21.2407251 94.25095703 22.10254395 94.22066406 22.99047852 94.18945312 C24.99678717 94.21575116 24.99678717 94.21575116 26 93 C26.1002093 90.72052208 26.13081303 88.43792865 26.1328125 86.15625 C26.13424759 85.12981384 26.13424759 85.12981384 26.13571167 84.0826416 C26.1363933 82.63338123 26.13454023 81.18411782 26.13037109 79.73486328 C26.12502252 77.50937072 26.1303166 75.28407999 26.13671875 73.05859375 C26.13605797 71.65364539 26.1347768 70.24869715 26.1328125 68.84375 C26.13112061 66.91305664 26.13112061 66.91305664 26.12939453 64.94335938 C26.33686143 62.11173843 26.33686143 62.11173843 25 61 C23.4745039 60.87932029 21.94400212 60.82047396 20.4140625 60.7890625 C19.01800781 60.74652344 19.01800781 60.74652344 17.59375 60.703125 C15.62258122 60.65125214 13.65119888 60.60691881 11.6796875 60.5703125 C10.27976562 60.52390625 10.27976562 60.52390625 8.8515625 60.4765625 C7.99385254 60.45674316 7.13614258 60.43692383 6.25244141 60.41650391 C3.50949355 59.90929937 2.67324071 59.19933342 1 57 C-0.0865671 54.37978872 -1.07452466 51.80020215 -2 49.125 C-3.93446307 43.52658122 -3.93446307 43.52658122 -6.6875 38.3046875 C-8.32357735 35.43181358 -8.74331545 34.24711486 -8 31 C-5.54032875 27.93907578 -2.53761845 25.42975791 0.37890625 22.81640625 C3.90561159 19.62145977 3.90561159 19.62145977 5.625 15.3125 C4.84495192 12.42632209 3.77285933 11.412088 1.5 9.5 C-1.95138889 6.32638889 -1.95138889 6.32638889 -2.4375 3.0625 C-2.293125 2.381875 -2.14875 1.70125 -2 1 C-1.34 0.67 -0.68 0.34 0 0 Z " fill="#0A0A0A" transform="translate(192,35)"/>
<path d="M0 0 C1.2065625 0.0309375 1.2065625 0.0309375 2.4375 0.0625 C6.00601749 6.77369756 8.79074984 13.74188248 11.49389648 20.83642578 C12.25528382 22.82630926 13.03272475 24.80946129 13.81054688 26.79296875 C14.29787011 28.0647233 14.78423343 29.33684618 15.26953125 30.609375 C15.71014893 31.75245117 16.1507666 32.89552734 16.60473633 34.07324219 C17.42189874 37.0064983 17.54390661 38.28266934 16.4375 41.0625 C14.4575 41.5575 14.4575 41.5575 12.4375 42.0625 C10.7747974 39.38771756 9.43766187 37.0629856 8.4375 34.0625 C2.8275 34.0625 -2.7825 34.0625 -8.5625 34.0625 C-9.5525 36.3725 -10.5425 38.6825 -11.5625 41.0625 C-13.625 42.125 -13.625 42.125 -15.5625 42.0625 C-16.2225 41.4025 -16.8825 40.7425 -17.5625 40.0625 C-17.15524258 36.40264975 -15.93432877 33.10619247 -14.63671875 29.67578125 C-14.25193359 28.65419922 -13.86714844 27.63261719 -13.47070312 26.58007812 C-13.06787109 25.52240234 -12.66503906 24.46472656 -12.25 23.375 C-11.6631543 21.81749023 -11.6631543 21.81749023 -11.06445312 20.22851562 C-3.44873318 0.08411544 -3.44873318 0.08411544 0 0 Z " fill="#070707" transform="translate(86.5625,68.9375)"/>
<path d="M0 0 C1.31355469 -0.02578125 2.62710938 -0.0515625 3.98046875 -0.078125 C9.13014942 0.36282625 12.36428007 1.95422427 16.1875 5.375 C18.45682404 9.38995791 18.48649707 12.73750743 17.8125 17.25 C16.06164772 21.3967554 13.75651775 24.07676573 9.8125 26.25 C5.74971064 26.58414586 1.90207633 26.4297616 -2.1875 26.25 C-2.1875 31.2 -2.1875 36.15 -2.1875 41.25 C-4.6625 41.745 -4.6625 41.745 -7.1875 42.25 C-9.08373202 40.35376798 -8.31647626 37.58629641 -8.32644653 35.0637207 C-8.3244223 34.19706787 -8.32239807 33.33041504 -8.3203125 32.4375 C-8.32126923 31.55344482 -8.32222595 30.66938965 -8.32321167 29.75854492 C-8.32389351 27.88557871 -8.32203893 26.01261014 -8.31787109 24.13964844 C-8.31252289 21.26231612 -8.31781593 18.38513992 -8.32421875 15.5078125 C-8.32355797 13.69270799 -8.32227681 11.87760357 -8.3203125 10.0625 C-8.32233673 9.19584717 -8.32436096 8.32919434 -8.32644653 7.4362793 C-8.29603102 -0.25913786 -7.16174876 0.0543071 0 0 Z " fill="#020202" transform="translate(119.1875,68.75)"/>
<path d="M0 0 C3.53571429 0.53571429 3.53571429 0.53571429 5 2 C5.1134515 4.78823738 5.16418263 7.55077345 5.16796875 10.33984375 C5.17129715 11.17713516 5.17462555 12.01442657 5.17805481 12.87709045 C5.18312756 14.65169728 5.18546303 16.42631367 5.18530273 18.20092773 C5.18748797 20.92252256 5.20563633 23.64371143 5.22460938 26.36523438 C5.22754342 28.08593611 5.22952814 29.80663977 5.23046875 31.52734375 C5.23765427 32.34508774 5.24483978 33.16283173 5.25224304 34.00535583 C5.22882204 39.77117796 5.22882204 39.77117796 3 42 C0.375 41.625 0.375 41.625 -2 41 C-2.0493521 35.48243524 -2.08569662 29.96499829 -2.10986328 24.44726562 C-2.11993534 22.56931318 -2.13359362 20.69137647 -2.15087891 18.81347656 C-2.17507453 16.1177991 -2.18647083 13.42232854 -2.1953125 10.7265625 C-2.20563507 9.88380768 -2.21595764 9.04105286 -2.22659302 8.17276001 C-2.22699144 6.11378753 -2.12257588 4.05532065 -2 2 C-1.34 1.34 -0.68 0.68 0 0 Z " fill="#161616" transform="translate(146,68)"/>
<path d="M0 0 C8.10996835 -0.60522152 8.10996835 -0.60522152 12.125 2.125 C14 5 14 5 14 8.125 C12.97354788 11.07604985 12.44447731 12.15173667 10 14 C7.51953125 14.29296875 7.51953125 14.29296875 4.8125 14.1875 C3.224375 14.125625 1.63625 14.06375 0 14 C0 9.38 0 4.76 0 0 Z " fill="#F2F2F2" transform="translate(117,75)"/>
<path d="M0 0 C4.03809068 4.61496078 6 9.92852877 6 16 C2.37 16 -1.26 16 -5 16 C-3.85388265 10.26941324 -2.47605477 5.28975338 0 0 Z " fill="#E9E9E9" transform="translate(86,80)"/>
</svg>
